<svg width="62" height="211" fill="none" xmlns="http://www.w3.org/2000/svg"><path fill="#fff" d="M0 0h62v211H0z"/><path fill="#fff" d="M0 0h62v211H0z"/><mask id="a" maskUnits="userSpaceOnUse" x="0" y="0" width="62" height="211"><path fill="#fff" d="M0 0h62v211H0z"/></mask><g mask="url(#a)"><path d="M62 0H0v211h62V0z" fill="#fff"/><path d="M4.96 36.88h-6.44v6.44h6.44v-6.44zM4.96 43.32h-6.44v6.44h6.44v-6.44zM4.96 62.64h-6.44v6.44h6.44v-6.44zM4.96 81.96h-6.44v6.44h6.44v-6.44zM4.96 94.84h-6.44v6.44h6.44v-6.44z" fill="#000"/><path d="M4.96 101.279h-6.44v6.44h6.44v-6.44zM4.96 120.601h-6.44v6.44h6.44v-6.44zM4.96 133.48h-6.44v6.44h6.44v-6.44zM4.96 139.92h-6.44v6.44h6.44v-6.44zM4.96 152.8h-6.44v6.44h6.44v-6.44zM4.96 159.24h-6.44v6.44h6.44v-6.44zM11.4 24H4.96v6.44h6.44V24zM11.4 30.44H4.96v6.44h6.44v-6.44zM11.4 56.2H4.96v6.44h6.44V56.2zM11.4 81.96H4.96v6.44h6.44v-6.44zM11.4 88.4H4.96v6.44h6.44V88.4zM11.4 101.279H4.96v6.44h6.44v-6.44zM11.4 120.601H4.96v6.44h6.44v-6.44zM11.4 133.48H4.96v6.44h6.44v-6.44zM11.4 139.92H4.96v6.44h6.44v-6.44zM11.4 146.36H4.96v6.44h6.44v-6.44zM11.4 165.68H4.96v6.44h6.44v-6.44zM11.4 172.12H4.96v6.44h6.44v-6.44zM11.4 178.56H4.96V185h6.44v-6.44zM17.84 24H11.4v6.44h6.44V24zM17.84 62.64H11.4v6.44h6.44v-6.44zM17.84 101.279H11.4v6.44h6.44v-6.44zM17.84 114.16H11.4v6.44h6.44v-6.44zM17.84 120.601H11.4v6.44h6.44v-6.44z" fill="#000"/><path d="M17.84 127.04H11.4v6.44h6.44v-6.44zM17.84 152.8H11.4v6.44h6.44v-6.44zM17.84 178.56H11.4V185h6.44v-6.44zM24.28 36.88h-6.44v6.44h6.44v-6.44zM24.28 43.32h-6.44v6.44h6.44v-6.44zM24.28 56.2h-6.44v6.44h6.44V56.2zM24.28 69.08h-6.44v6.44h6.44v-6.44zM24.28 101.279h-6.44v6.44h6.44v-6.44zM24.28 133.48h-6.44v6.44h6.44v-6.44zM24.28 152.8h-6.44v6.44h6.44v-6.44zM24.28 165.68h-6.44v6.44h6.44v-6.44z" fill="#000"/><path d="M30.72 36.88h-6.44v6.44h6.44v-6.44zM30.72 62.64h-6.44v6.44h6.44v-6.44zM30.72 69.08h-6.44v6.44h6.44v-6.44zM30.72 94.84h-6.44v6.44h6.44v-6.44zM30.72 120.601h-6.44v6.44h6.44v-6.44zM30.72 139.92h-6.44v6.44h6.44v-6.44zM30.72 146.36h-6.44v6.44h6.44v-6.44zM30.72 159.24h-6.44v6.44h6.44v-6.44zM30.72 165.68h-6.44v6.44h6.44v-6.44zM30.72 178.56h-6.44V185h6.44v-6.44zM37.16 30.44h-6.44v6.44h6.44v-6.44zM37.16 43.32h-6.44v6.44h6.44v-6.44zM37.16 49.76h-6.44v6.44h6.44v-6.44zM37.16 75.52h-6.44v6.44h6.44v-6.44zM37.16 107.721h-6.44v6.44h6.44v-6.44z" fill="#000"/><path d="M37.16 114.16h-6.44v6.44h6.44v-6.44zM37.16 133.48h-6.44v6.44h6.44v-6.44zM37.16 159.24h-6.44v6.44h6.44v-6.44zM37.16 165.68h-6.44v6.44h6.44v-6.44zM37.16 172.12h-6.44v6.44h6.44v-6.44zM43.6 36.88h-6.44v6.44h6.44v-6.44zM43.6 62.64h-6.44v6.44h6.44v-6.44zM43.6 75.52h-6.44v6.44h6.44v-6.44zM43.6 101.279h-6.44v6.44h6.44v-6.44zM43.6 127.04h-6.44v6.44h6.44v-6.44z" fill="#000"/><path d="M43.6 133.48h-6.44v6.44h6.44v-6.44zM43.6 146.36h-6.44v6.44h6.44v-6.44zM43.6 152.8h-6.44v6.44h6.44v-6.44zM43.6 172.12h-6.44v6.44h6.44v-6.44zM50.04 43.32H43.6v6.44h6.44v-6.44zM50.04 49.76H43.6v6.44h6.44v-6.44zM50.04 56.2H43.6v6.44h6.44V56.2zM50.04 88.4H43.6v6.44h6.44V88.4zM50.04 94.84H43.6v6.44h6.44v-6.44z" fill="#000"/><path d="M50.04 101.279H43.6v6.44h6.44v-6.44zM50.04 114.16H43.6v6.44h6.44v-6.44zM50.04 127.04H43.6v6.44h6.44v-6.44zM50.04 139.92H43.6v6.44h6.44v-6.44zM50.04 146.36H43.6v6.44h6.44v-6.44zM50.04 178.56H43.6V185h6.44v-6.44zM56.48 24h-6.44v6.44h6.44V24zM56.48 36.88h-6.44v6.44h6.44v-6.44zM56.48 43.32h-6.44v6.44h6.44v-6.44zM56.48 49.76h-6.44v6.44h6.44v-6.44zM56.48 62.64h-6.44v6.44h6.44v-6.44zM56.48 81.96h-6.44v6.44h6.44v-6.44zM56.48 120.601h-6.44v6.44h6.44v-6.44z" fill="#000"/><path d="M56.48 127.04h-6.44v6.44h6.44v-6.44z" fill="#000"/><path d="M56.48 133.48h-6.44v6.44h6.44v-6.44zM56.48 139.92h-6.44v6.44h6.44v-6.44zM56.48 146.36h-6.44v6.44h6.44v-6.44zM56.48 152.8h-6.44v6.44h6.44v-6.44zM56.48 165.68h-6.44v6.44h6.44v-6.44zM56.48 172.12h-6.44v6.44h6.44v-6.44zM56.48 178.56h-6.44V185h6.44v-6.44zM62.92 120.601h-6.44v6.44h6.44v-6.44z" fill="#000"/><path d="M62.92 127.04h-6.44v6.44h6.44v-6.44zM62.92 152.8h-6.44v6.44h6.44v-6.44zM62.92 159.24h-6.44v6.44h6.44v-6.44zM62.92 165.68h-6.44v6.44h6.44v-6.44zM62.92 172.12h-6.44v6.44h6.44v-6.44zM62.92 178.56h-6.44V185h6.44v-6.44z" fill="#000"/></g><path fill="#000" d="M0 0h62v8H0zM0 11h62v4H0zM0 18h62v2H0zM0 209h62v2H0zM0 205h62v2H0zM0 201h62v2H0zM0 194h62v5H0zM0 189h62v3H0z"/></svg>