<svg width="148" height="37" fill="none" xmlns="http://www.w3.org/2000/svg"><rect width="148" height="37" rx="3" fill="#54A1CB"/><path fill-rule="evenodd" clip-rule="evenodd" d="M29.762 6h-5.75v15.452h5.75V6zM19.675 8.55l.004-.006 2.14-.032v5.252l-4.973 6.605-2.061 2.768 7.012.019v5.417H9.592l-.935.035v-5.481l7.115-9.413-7.06.006 1.33-5.145 9.633-.025zm4.338 14.593l12.556-.016 2.345 5.357-14.901.047v-5.388z" fill="#FB0000"/><path fill-rule="evenodd" clip-rule="evenodd" d="M29.762 6h-5.75v15.452h5.75V6zM19.675 8.55l.004-.006 2.14-.032v5.252l-4.973 6.605-2.061 2.768 7.012.019v5.417H9.592l-.935.035v-5.481l7.115-9.413-7.06.006 1.33-5.145 9.633-.025zm4.338 14.593l12.556-.016 2.345 5.357-14.901.047v-5.388z" fill="#fff"/><path d="M46.182 27.124V24.89l4.013-11.928h-3.857v-2.502h7.478v2.039l-4.12 12.134h4.16v2.492h-7.674zM58.895 27.124V10.46h7.438v2.512h-3.788v4.117h2.888v2.56h-2.888v4.974h3.827v2.492h-7.477v.01zM71.307 27.124V10.46h4.512c.695 0 1.321.04 1.86.118a5.861 5.861 0 0 1 1.517.424c.47.207.861.463 1.164.798.304.334.549.748.715 1.27.176.512.264 1.123.264 1.812 0 1.094-.147 1.97-.44 2.63-.294.66-.823 1.182-1.586 1.547l2.28 8.076h-3.787l-1.82-7.456h-1.029v7.456h-3.65v-.01zm3.65-9.583h.94c.744 0 1.273-.197 1.576-.581.303-.384.46-.976.46-1.763 0-.769-.137-1.34-.411-1.714-.274-.375-.754-.562-1.43-.562h-1.125v4.62h-.01zM91.557 27.35c-.92 0-1.703-.117-2.349-.364-.646-.246-1.165-.61-1.546-1.093-.382-.483-.656-1.054-.832-1.714-.177-.66-.255-1.428-.255-2.324v-6.146c0-.897.088-1.675.255-2.325.166-.65.45-1.221.832-1.704.381-.482.9-.847 1.546-1.083.646-.246 1.43-.365 2.35-.365 1.79 0 3.073.463 3.846 1.38.773.925 1.165 2.284 1.165 4.097v6.156c0 1.812-.392 3.181-1.165 4.107-.773.916-2.056 1.379-3.847 1.379zm-.567-2.718c.156.08.342.118.567.118.215 0 .411-.039.568-.118.156-.079.284-.177.372-.295.088-.118.156-.266.205-.453.05-.187.079-.365.098-.532.01-.168.02-.364.02-.591v-7.988a9.8 9.8 0 0 0-.02-.581 2.697 2.697 0 0 0-.098-.522 1.163 1.163 0 0 0-.205-.443.94.94 0 0 0-.372-.286 1.271 1.271 0 0 0-.568-.118c-.215 0-.41.04-.567.118a.977.977 0 0 0-.363.286 1.072 1.072 0 0 0-.195.453 2.778 2.778 0 0 0-.088.522c-.01.157-.02.345-.02.58v7.989c0 .236 0 .433.02.59.01.158.039.336.088.523.049.187.117.345.195.453a.997.997 0 0 0 .363.295zM102.042 27.124V10.46h3.661v14.173h3.797v2.492h-7.458zM113.58 27.124l3.142-16.665h4.13l3.113 16.665h-3.377l-.568-3.536h-2.417l-.558 3.536h-3.465zm4.346-5.742h1.771l-.89-6.451-.881 6.451zM128.898 27.124V10.46h4.317c.616 0 1.174.03 1.654.098.48.07.959.188 1.439.375.479.187.871.433 1.174.748.304.316.558.739.744 1.27.176.493.255 1.075.255 1.725v.137c-.03 1.94-.832 3.064-2.428 3.35.95.127 1.674.531 2.173 1.2.499.68.754 1.616.773 2.808v.108c-.009 1.626-.43 2.837-1.272 3.625-.861.808-2.114 1.202-3.739 1.202h-5.09v.02zm3.651-9.997h.695c.783 0 1.322-.177 1.605-.532.284-.354.421-.916.421-1.684 0-1.31-.714-1.97-2.143-1.97h-.578v4.186zm0 7.427h.774c.792 0 1.35-.197 1.673-.581.323-.385.48-1.005.48-1.842 0-.936-.167-1.606-.49-1.99-.323-.384-.9-.581-1.712-.581h-.715v4.994h-.01z" fill="#fff"/></svg>