<svg width="127" height="134" fill="none" xmlns="http://www.w3.org/2000/svg"><path d="M54.72 10.594l-48.958.132L.222 32.15l30.36-.026L.223 71.445v22.56h54.499v-22.56l-29.205-.08L54.721 32.15V10.594z" fill="#fff"/><path d="M45.9 10.592L0 71.325v22.824l8.506-.317 46.307-61.499V10.46l-8.912.132zM87.89 0H63.95v64.352h23.94V0zM116.242 71.326l-52.293.066v22.441l62.059-.198-9.766-22.309zM.053 133.234v-2.998l5.381-15.995H.263v-3.355H10.29v2.734l-5.526 16.273h5.578v3.341H.053zM17.102 133.234v-22.348h9.975v3.368h-5.08v5.521h3.873v3.434h-3.873v6.671h5.133v3.341H17.102v.013zM33.747 133.234v-22.348h6.051c.932 0 1.772.053 2.494.158a7.887 7.887 0 0 1 2.035.568c.63.278 1.154.621 1.561 1.07a4.54 4.54 0 0 1 .959 1.704c.236.687.354 1.506.354 2.43 0 1.466-.197 2.642-.59 3.527-.394.885-1.103 1.585-2.127 2.074l3.058 10.831h-5.08l-2.44-9.999h-1.379v9.999h-4.896v-.014zm4.896-12.851h1.26c.998 0 1.706-.265 2.113-.78.407-.515.617-1.307.617-2.364 0-1.03-.184-1.796-.551-2.298-.368-.502-1.01-.753-1.916-.753h-1.51v6.195h-.013zM60.904 133.538c-1.234 0-2.284-.158-3.15-.488-.867-.331-1.563-.819-2.074-1.467-.512-.647-.88-1.413-1.116-2.298-.236-.885-.341-1.915-.341-3.117v-8.242c0-1.202.118-2.246.34-3.117a6.082 6.082 0 0 1 1.117-2.285c.511-.648 1.207-1.136 2.074-1.453.866-.33 1.916-.489 3.15-.489 2.402 0 4.121.621 5.158 1.849 1.037 1.242 1.562 3.065 1.562 5.495v8.255c0 2.431-.525 4.267-1.562 5.508-1.037 1.229-2.756 1.849-5.158 1.849zm-.762-3.645c.21.105.46.158.762.158.288 0 .551-.053.761-.158.21-.106.38-.238.499-.396a1.74 1.74 0 0 0 .275-.608 5.19 5.19 0 0 0 .132-.713c.013-.225.026-.489.026-.793v-10.712c0-.29-.013-.555-.026-.779a3.624 3.624 0 0 0-.132-.7 1.568 1.568 0 0 0-.275-.595 1.27 1.27 0 0 0-.499-.383 1.714 1.714 0 0 0-.761-.158c-.29 0-.552.053-.762.158-.21.106-.367.225-.485.383-.118.146-.21.357-.263.608a3.722 3.722 0 0 0-.118.7c-.013.211-.026.462-.026.779v10.712c0 .317 0 .582.026.793.013.211.053.449.118.7.066.251.158.462.263.608.118.158.275.29.485.396zM74.962 133.234v-22.348h4.909v19.007h5.093v3.341H74.962zM90.438 133.234l4.213-22.348h5.539l4.174 22.348h-4.528l-.762-4.741h-3.242l-.748 4.741h-4.647zm5.827-7.7h2.376l-1.194-8.652-1.182 8.652zM110.979 133.234v-22.348h5.789c.827 0 1.575.039 2.218.132a8.642 8.642 0 0 1 1.93.502c.643.251 1.168.581 1.575 1.004.407.422.748.99.997 1.703.237.661.342 1.44.342 2.312v.185c-.04 2.602-1.116 4.108-3.256 4.491 1.274.171 2.245.713 2.914 1.611.67.912 1.011 2.166 1.037 3.765v.145c-.013 2.179-.577 3.804-1.706 4.861-1.155 1.083-2.835 1.611-5.014 1.611h-6.826v.026zm4.896-13.406h.932c1.05 0 1.772-.238 2.153-.713.381-.476.564-1.229.564-2.259 0-1.757-.958-2.642-2.874-2.642h-.775v5.614zm0 9.959h1.037c1.064 0 1.812-.264 2.245-.779.433-.515.643-1.348.643-2.47 0-1.255-.223-2.153-.656-2.668-.433-.515-1.208-.78-2.297-.78h-.958v6.697h-.014z" fill="#fff"/></svg>